<svg xmlns="http://www.w3.org/2000/svg" width="16.124" height="10.63" viewBox="0 0 16.124 10.63">
  <path id="Icon_awesome-google-plus-g" data-name="Icon awesome-google-plus-g" d="M10.7,9.054a4.747,4.747,0,0,1,.082.885c0,3.038-1.932,5.192-4.839,5.192A5.181,5.181,0,0,1,.9,9.815,5.181,5.181,0,0,1,5.939,4.5,4.681,4.681,0,0,1,9.314,5.892L7.946,7.277a2.755,2.755,0,0,0-2.007-.819A3.247,3.247,0,0,0,2.818,9.815a3.247,3.247,0,0,0,3.121,3.357A2.773,2.773,0,0,0,8.8,10.881H5.939V9.054H10.7Zm4.866.178V7.689h-1.47V9.232H12.629v1.55h1.463v1.543h1.47V10.782h1.463V9.232H15.561Z" transform="translate(-0.9 -4.5)"/>
</svg>
