<svg xmlns="http://www.w3.org/2000/svg" width="13.557" height="10.59" viewBox="0 0 13.557 10.59">
  <path id="Icon_awesome-twitter" data-name="Icon awesome-twitter" d="M12.163,6.02c.009.116.009.232.009.347a7.7,7.7,0,0,1-7.905,7.6A8.08,8.08,0,0,1,0,12.771a5.974,5.974,0,0,0,.671.033A5.706,5.706,0,0,0,4.12,11.662a2.772,2.772,0,0,1-2.6-1.853,3.64,3.64,0,0,0,.525.041,3.049,3.049,0,0,0,.731-.091A2.7,2.7,0,0,1,.55,7.137V7.1a2.883,2.883,0,0,0,1.256.339A2.645,2.645,0,0,1,.568,5.217,2.575,2.575,0,0,1,.946,3.869a8.005,8.005,0,0,0,5.729,2.8,2.906,2.906,0,0,1-.069-.612A2.726,2.726,0,0,1,9.385,3.381a2.824,2.824,0,0,1,2.03.844,5.6,5.6,0,0,0,1.763-.645,2.687,2.687,0,0,1-1.221,1.473,5.745,5.745,0,0,0,1.6-.414A5.854,5.854,0,0,1,12.163,6.02Z" transform="translate(0 -3.381)"/>
</svg>
