<svg xmlns="http://www.w3.org/2000/svg" width="12.845" height="12" viewBox="0 0 12.845 12">
  <g id="Icon_ionic-md-thumbs-up" data-name="Icon ionic-md-thumbs-up" transform="translate(-3.375 -4.5)">
    <path id="Path_3" data-name="Path 3" d="M12.424,16.5h5.312a1.134,1.134,0,0,0,1.056-.731l1.763-4.231a1.209,1.209,0,0,0,.08-.437V9.894A1.373,1.373,0,0,0,19.468,8.5H15.787l.556-2.547.019-.187a.911.911,0,0,0-.256-.634L15.481,4.5,11.59,8.478a1.21,1.21,0,0,0-.34.847v6A1.171,1.171,0,0,0,12.424,16.5Z" transform="translate(-4.416)"/>
    <path id="Path_4" data-name="Path 4" d="M3.375,15.75H5.352v6.918H3.375Z" transform="translate(0 -6.168)"/>
  </g>
</svg>
